<svg xmlns="http://www.w3.org/2000/svg" xmlns:xlink="http://www.w3.org/1999/xlink" width="500" zoomAndPan="magnify" viewBox="0 0 375 374.999991" height="500" preserveAspectRatio="xMidYMid meet" version="1.0"><defs><g/></defs><g fill="#000000" fill-opacity="1"><g transform="translate(134.094416, 241.801533)"><g><path d="M 108.4375 -98.25 L -1.015625 -98.25 L -1.015625 -110.46875 L 108.4375 -110.46875 Z M 86.546875 -53.546875 C 86.546875 -69.835938 78.84375 -77.984375 63.4375 -77.984375 C 52.03125 -77.984375 42.492188 -72.015625 34.828125 -60.078125 C 28.035156 -49.484375 24.640625 -38.210938 24.640625 -26.265625 L 24.640625 3.359375 L 7.9375 -5.390625 L 7.9375 -81.953125 L 25.453125 -81.953125 L 25.453125 -69.84375 L 34.515625 -76.671875 C 42.523438 -82.710938 50.972656 -85.734375 59.859375 -85.734375 C 71.941406 -85.734375 81.957031 -81.046875 89.90625 -71.671875 C 97.375 -62.847656 101.109375 -52.296875 101.109375 -40.015625 C 101.109375 -24.609375 94.585938 -9.8125 81.546875 4.375 L 61.90625 -7.9375 C 68.007812 -13.976562 73.203125 -19.546875 77.484375 -24.640625 C 83.523438 -31.835938 86.546875 -41.472656 86.546875 -53.546875 Z M 86.546875 -53.546875 "/></g></g></g></svg>